<?xml version="1.0" encoding="utf-8"?>
<svg xmlns="http://www.w3.org/2000/svg" xmlns:xlink="http://www.w3.org/1999/xlink" style="margin: auto; background: none; display: block; shape-rendering: auto;" width="277px" height="277px" viewBox="0 0 100 100" preserveAspectRatio="xMidYMid">
<g transform="rotate(0 50 50)">
  <rect x="49.5" y="28.5" rx="0" ry="0" width="1" height="9" fill="#050505">
    <animate attributeName="opacity" values="1;0" keyTimes="0;1" dur="0.22883295194508008s" begin="-0.22247648105771675s" repeatCount="indefinite"></animate>
  </rect>
</g><g transform="rotate(10 50 50)">
  <rect x="49.5" y="28.5" rx="0" ry="0" width="1" height="9" fill="#050505">
    <animate attributeName="opacity" values="1;0" keyTimes="0;1" dur="0.22883295194508008s" begin="-0.21612001017035343s" repeatCount="indefinite"></animate>
  </rect>
</g><g transform="rotate(20 50 50)">
  <rect x="49.5" y="28.5" rx="0" ry="0" width="1" height="9" fill="#050505">
    <animate attributeName="opacity" values="1;0" keyTimes="0;1" dur="0.22883295194508008s" begin="-0.2097635392829901s" repeatCount="indefinite"></animate>
  </rect>
</g><g transform="rotate(30 50 50)">
  <rect x="49.5" y="28.5" rx="0" ry="0" width="1" height="9" fill="#050505">
    <animate attributeName="opacity" values="1;0" keyTimes="0;1" dur="0.22883295194508008s" begin="-0.20340706839562675s" repeatCount="indefinite"></animate>
  </rect>
</g><g transform="rotate(40 50 50)">
  <rect x="49.5" y="28.5" rx="0" ry="0" width="1" height="9" fill="#050505">
    <animate attributeName="opacity" values="1;0" keyTimes="0;1" dur="0.22883295194508008s" begin="-0.19705059750826343s" repeatCount="indefinite"></animate>
  </rect>
</g><g transform="rotate(50 50 50)">
  <rect x="49.5" y="28.5" rx="0" ry="0" width="1" height="9" fill="#050505">
    <animate attributeName="opacity" values="1;0" keyTimes="0;1" dur="0.22883295194508008s" begin="-0.19069412662090007s" repeatCount="indefinite"></animate>
  </rect>
</g><g transform="rotate(60 50 50)">
  <rect x="49.5" y="28.5" rx="0" ry="0" width="1" height="9" fill="#050505">
    <animate attributeName="opacity" values="1;0" keyTimes="0;1" dur="0.22883295194508008s" begin="-0.18433765573353675s" repeatCount="indefinite"></animate>
  </rect>
</g><g transform="rotate(70 50 50)">
  <rect x="49.5" y="28.5" rx="0" ry="0" width="1" height="9" fill="#050505">
    <animate attributeName="opacity" values="1;0" keyTimes="0;1" dur="0.22883295194508008s" begin="-0.17798118484617342s" repeatCount="indefinite"></animate>
  </rect>
</g><g transform="rotate(80 50 50)">
  <rect x="49.5" y="28.5" rx="0" ry="0" width="1" height="9" fill="#050505">
    <animate attributeName="opacity" values="1;0" keyTimes="0;1" dur="0.22883295194508008s" begin="-0.17162471395881007s" repeatCount="indefinite"></animate>
  </rect>
</g><g transform="rotate(90 50 50)">
  <rect x="49.5" y="28.5" rx="0" ry="0" width="1" height="9" fill="#050505">
    <animate attributeName="opacity" values="1;0" keyTimes="0;1" dur="0.22883295194508008s" begin="-0.16526824307144675s" repeatCount="indefinite"></animate>
  </rect>
</g><g transform="rotate(100 50 50)">
  <rect x="49.5" y="28.5" rx="0" ry="0" width="1" height="9" fill="#050505">
    <animate attributeName="opacity" values="1;0" keyTimes="0;1" dur="0.22883295194508008s" begin="-0.1589117721840834s" repeatCount="indefinite"></animate>
  </rect>
</g><g transform="rotate(110 50 50)">
  <rect x="49.5" y="28.5" rx="0" ry="0" width="1" height="9" fill="#050505">
    <animate attributeName="opacity" values="1;0" keyTimes="0;1" dur="0.22883295194508008s" begin="-0.15255530129672007s" repeatCount="indefinite"></animate>
  </rect>
</g><g transform="rotate(120 50 50)">
  <rect x="49.5" y="28.5" rx="0" ry="0" width="1" height="9" fill="#050505">
    <animate attributeName="opacity" values="1;0" keyTimes="0;1" dur="0.22883295194508008s" begin="-0.14619883040935674s" repeatCount="indefinite"></animate>
  </rect>
</g><g transform="rotate(130 50 50)">
  <rect x="49.5" y="28.5" rx="0" ry="0" width="1" height="9" fill="#050505">
    <animate attributeName="opacity" values="1;0" keyTimes="0;1" dur="0.22883295194508008s" begin="-0.1398423595219934s" repeatCount="indefinite"></animate>
  </rect>
</g><g transform="rotate(140 50 50)">
  <rect x="49.5" y="28.5" rx="0" ry="0" width="1" height="9" fill="#050505">
    <animate attributeName="opacity" values="1;0" keyTimes="0;1" dur="0.22883295194508008s" begin="-0.13348588863463007s" repeatCount="indefinite"></animate>
  </rect>
</g><g transform="rotate(150 50 50)">
  <rect x="49.5" y="28.5" rx="0" ry="0" width="1" height="9" fill="#050505">
    <animate attributeName="opacity" values="1;0" keyTimes="0;1" dur="0.22883295194508008s" begin="-0.12712941774726672s" repeatCount="indefinite"></animate>
  </rect>
</g><g transform="rotate(160 50 50)">
  <rect x="49.5" y="28.5" rx="0" ry="0" width="1" height="9" fill="#050505">
    <animate attributeName="opacity" values="1;0" keyTimes="0;1" dur="0.22883295194508008s" begin="-0.12077294685990339s" repeatCount="indefinite"></animate>
  </rect>
</g><g transform="rotate(170 50 50)">
  <rect x="49.5" y="28.5" rx="0" ry="0" width="1" height="9" fill="#050505">
    <animate attributeName="opacity" values="1;0" keyTimes="0;1" dur="0.22883295194508008s" begin="-0.11441647597254005s" repeatCount="indefinite"></animate>
  </rect>
</g><g transform="rotate(180 50 50)">
  <rect x="49.5" y="28.5" rx="0" ry="0" width="1" height="9" fill="#050505">
    <animate attributeName="opacity" values="1;0" keyTimes="0;1" dur="0.22883295194508008s" begin="-0.10806000508517671s" repeatCount="indefinite"></animate>
  </rect>
</g><g transform="rotate(190 50 50)">
  <rect x="49.5" y="28.5" rx="0" ry="0" width="1" height="9" fill="#050505">
    <animate attributeName="opacity" values="1;0" keyTimes="0;1" dur="0.22883295194508008s" begin="-0.10170353419781338s" repeatCount="indefinite"></animate>
  </rect>
</g><g transform="rotate(200 50 50)">
  <rect x="49.5" y="28.5" rx="0" ry="0" width="1" height="9" fill="#050505">
    <animate attributeName="opacity" values="1;0" keyTimes="0;1" dur="0.22883295194508008s" begin="-0.09534706331045004s" repeatCount="indefinite"></animate>
  </rect>
</g><g transform="rotate(210 50 50)">
  <rect x="49.5" y="28.5" rx="0" ry="0" width="1" height="9" fill="#050505">
    <animate attributeName="opacity" values="1;0" keyTimes="0;1" dur="0.22883295194508008s" begin="-0.08899059242308671s" repeatCount="indefinite"></animate>
  </rect>
</g><g transform="rotate(220 50 50)">
  <rect x="49.5" y="28.5" rx="0" ry="0" width="1" height="9" fill="#050505">
    <animate attributeName="opacity" values="1;0" keyTimes="0;1" dur="0.22883295194508008s" begin="-0.08263412153572337s" repeatCount="indefinite"></animate>
  </rect>
</g><g transform="rotate(230 50 50)">
  <rect x="49.5" y="28.5" rx="0" ry="0" width="1" height="9" fill="#050505">
    <animate attributeName="opacity" values="1;0" keyTimes="0;1" dur="0.22883295194508008s" begin="-0.07627765064836003s" repeatCount="indefinite"></animate>
  </rect>
</g><g transform="rotate(240 50 50)">
  <rect x="49.5" y="28.5" rx="0" ry="0" width="1" height="9" fill="#050505">
    <animate attributeName="opacity" values="1;0" keyTimes="0;1" dur="0.22883295194508008s" begin="-0.0699211797609967s" repeatCount="indefinite"></animate>
  </rect>
</g><g transform="rotate(250 50 50)">
  <rect x="49.5" y="28.5" rx="0" ry="0" width="1" height="9" fill="#050505">
    <animate attributeName="opacity" values="1;0" keyTimes="0;1" dur="0.22883295194508008s" begin="-0.06356470887363336s" repeatCount="indefinite"></animate>
  </rect>
</g><g transform="rotate(260 50 50)">
  <rect x="49.5" y="28.5" rx="0" ry="0" width="1" height="9" fill="#050505">
    <animate attributeName="opacity" values="1;0" keyTimes="0;1" dur="0.22883295194508008s" begin="-0.057208237986270026s" repeatCount="indefinite"></animate>
  </rect>
</g><g transform="rotate(270 50 50)">
  <rect x="49.5" y="28.5" rx="0" ry="0" width="1" height="9" fill="#050505">
    <animate attributeName="opacity" values="1;0" keyTimes="0;1" dur="0.22883295194508008s" begin="-0.05085176709890669s" repeatCount="indefinite"></animate>
  </rect>
</g><g transform="rotate(280 50 50)">
  <rect x="49.5" y="28.5" rx="0" ry="0" width="1" height="9" fill="#050505">
    <animate attributeName="opacity" values="1;0" keyTimes="0;1" dur="0.22883295194508008s" begin="-0.044495296211543356s" repeatCount="indefinite"></animate>
  </rect>
</g><g transform="rotate(290 50 50)">
  <rect x="49.5" y="28.5" rx="0" ry="0" width="1" height="9" fill="#050505">
    <animate attributeName="opacity" values="1;0" keyTimes="0;1" dur="0.22883295194508008s" begin="-0.03813882532418002s" repeatCount="indefinite"></animate>
  </rect>
</g><g transform="rotate(300 50 50)">
  <rect x="49.5" y="28.5" rx="0" ry="0" width="1" height="9" fill="#050505">
    <animate attributeName="opacity" values="1;0" keyTimes="0;1" dur="0.22883295194508008s" begin="-0.03178235443681668s" repeatCount="indefinite"></animate>
  </rect>
</g><g transform="rotate(310 50 50)">
  <rect x="49.5" y="28.5" rx="0" ry="0" width="1" height="9" fill="#050505">
    <animate attributeName="opacity" values="1;0" keyTimes="0;1" dur="0.22883295194508008s" begin="-0.025425883549453344s" repeatCount="indefinite"></animate>
  </rect>
</g><g transform="rotate(320 50 50)">
  <rect x="49.5" y="28.5" rx="0" ry="0" width="1" height="9" fill="#050505">
    <animate attributeName="opacity" values="1;0" keyTimes="0;1" dur="0.22883295194508008s" begin="-0.01906941266209001s" repeatCount="indefinite"></animate>
  </rect>
</g><g transform="rotate(330 50 50)">
  <rect x="49.5" y="28.5" rx="0" ry="0" width="1" height="9" fill="#050505">
    <animate attributeName="opacity" values="1;0" keyTimes="0;1" dur="0.22883295194508008s" begin="-0.012712941774726672s" repeatCount="indefinite"></animate>
  </rect>
</g><g transform="rotate(340 50 50)">
  <rect x="49.5" y="28.5" rx="0" ry="0" width="1" height="9" fill="#050505">
    <animate attributeName="opacity" values="1;0" keyTimes="0;1" dur="0.22883295194508008s" begin="-0.006356470887363336s" repeatCount="indefinite"></animate>
  </rect>
</g><g transform="rotate(350 50 50)">
  <rect x="49.5" y="28.5" rx="0" ry="0" width="1" height="9" fill="#050505">
    <animate attributeName="opacity" values="1;0" keyTimes="0;1" dur="0.22883295194508008s" begin="0s" repeatCount="indefinite"></animate>
  </rect>
</g>
<!-- [ldio] generated by https://loading.io/ --></svg>