<?xml version="1.0" encoding="utf-8"?>
<svg xmlns="http://www.w3.org/2000/svg" xmlns:xlink="http://www.w3.org/1999/xlink" style="margin: auto; background: transparent; display: block; shape-rendering: auto;" width="344px" height="344px" viewBox="0 0 100 100" preserveAspectRatio="xMidYMid">
<g transform="rotate(0 50 50)">
  <rect x="49" y="25.5" rx="1" ry="1.17" width="2" height="13" fill="#0a0a0a">
    <animate attributeName="opacity" values="1;0" keyTimes="0;1" dur="0.2645502645502646s" begin="-0.25195263290501385s" repeatCount="indefinite"></animate>
  </rect>
</g><g transform="rotate(17.142857142857142 50 50)">
  <rect x="49" y="25.5" rx="1" ry="1.17" width="2" height="13" fill="#0a0a0a">
    <animate attributeName="opacity" values="1;0" keyTimes="0;1" dur="0.2645502645502646s" begin="-0.23935500125976317s" repeatCount="indefinite"></animate>
  </rect>
</g><g transform="rotate(34.285714285714285 50 50)">
  <rect x="49" y="25.5" rx="1" ry="1.17" width="2" height="13" fill="#0a0a0a">
    <animate attributeName="opacity" values="1;0" keyTimes="0;1" dur="0.2645502645502646s" begin="-0.22675736961451248s" repeatCount="indefinite"></animate>
  </rect>
</g><g transform="rotate(51.42857142857143 50 50)">
  <rect x="49" y="25.5" rx="1" ry="1.17" width="2" height="13" fill="#0a0a0a">
    <animate attributeName="opacity" values="1;0" keyTimes="0;1" dur="0.2645502645502646s" begin="-0.2141597379692618s" repeatCount="indefinite"></animate>
  </rect>
</g><g transform="rotate(68.57142857142857 50 50)">
  <rect x="49" y="25.5" rx="1" ry="1.17" width="2" height="13" fill="#0a0a0a">
    <animate attributeName="opacity" values="1;0" keyTimes="0;1" dur="0.2645502645502646s" begin="-0.2015621063240111s" repeatCount="indefinite"></animate>
  </rect>
</g><g transform="rotate(85.71428571428571 50 50)">
  <rect x="49" y="25.5" rx="1" ry="1.17" width="2" height="13" fill="#0a0a0a">
    <animate attributeName="opacity" values="1;0" keyTimes="0;1" dur="0.2645502645502646s" begin="-0.1889644746787604s" repeatCount="indefinite"></animate>
  </rect>
</g><g transform="rotate(102.85714285714286 50 50)">
  <rect x="49" y="25.5" rx="1" ry="1.17" width="2" height="13" fill="#0a0a0a">
    <animate attributeName="opacity" values="1;0" keyTimes="0;1" dur="0.2645502645502646s" begin="-0.17636684303350972s" repeatCount="indefinite"></animate>
  </rect>
</g><g transform="rotate(120 50 50)">
  <rect x="49" y="25.5" rx="1" ry="1.17" width="2" height="13" fill="#0a0a0a">
    <animate attributeName="opacity" values="1;0" keyTimes="0;1" dur="0.2645502645502646s" begin="-0.163769211388259s" repeatCount="indefinite"></animate>
  </rect>
</g><g transform="rotate(137.14285714285714 50 50)">
  <rect x="49" y="25.5" rx="1" ry="1.17" width="2" height="13" fill="#0a0a0a">
    <animate attributeName="opacity" values="1;0" keyTimes="0;1" dur="0.2645502645502646s" begin="-0.15117157974300832s" repeatCount="indefinite"></animate>
  </rect>
</g><g transform="rotate(154.28571428571428 50 50)">
  <rect x="49" y="25.5" rx="1" ry="1.17" width="2" height="13" fill="#0a0a0a">
    <animate attributeName="opacity" values="1;0" keyTimes="0;1" dur="0.2645502645502646s" begin="-0.13857394809775764s" repeatCount="indefinite"></animate>
  </rect>
</g><g transform="rotate(171.42857142857142 50 50)">
  <rect x="49" y="25.5" rx="1" ry="1.17" width="2" height="13" fill="#0a0a0a">
    <animate attributeName="opacity" values="1;0" keyTimes="0;1" dur="0.2645502645502646s" begin="-0.12597631645250693s" repeatCount="indefinite"></animate>
  </rect>
</g><g transform="rotate(188.57142857142858 50 50)">
  <rect x="49" y="25.5" rx="1" ry="1.17" width="2" height="13" fill="#0a0a0a">
    <animate attributeName="opacity" values="1;0" keyTimes="0;1" dur="0.2645502645502646s" begin="-0.11337868480725624s" repeatCount="indefinite"></animate>
  </rect>
</g><g transform="rotate(205.71428571428572 50 50)">
  <rect x="49" y="25.5" rx="1" ry="1.17" width="2" height="13" fill="#0a0a0a">
    <animate attributeName="opacity" values="1;0" keyTimes="0;1" dur="0.2645502645502646s" begin="-0.10078105316200554s" repeatCount="indefinite"></animate>
  </rect>
</g><g transform="rotate(222.85714285714286 50 50)">
  <rect x="49" y="25.5" rx="1" ry="1.17" width="2" height="13" fill="#0a0a0a">
    <animate attributeName="opacity" values="1;0" keyTimes="0;1" dur="0.2645502645502646s" begin="-0.08818342151675486s" repeatCount="indefinite"></animate>
  </rect>
</g><g transform="rotate(240 50 50)">
  <rect x="49" y="25.5" rx="1" ry="1.17" width="2" height="13" fill="#0a0a0a">
    <animate attributeName="opacity" values="1;0" keyTimes="0;1" dur="0.2645502645502646s" begin="-0.07558578987150416s" repeatCount="indefinite"></animate>
  </rect>
</g><g transform="rotate(257.14285714285717 50 50)">
  <rect x="49" y="25.5" rx="1" ry="1.17" width="2" height="13" fill="#0a0a0a">
    <animate attributeName="opacity" values="1;0" keyTimes="0;1" dur="0.2645502645502646s" begin="-0.06298815822625346s" repeatCount="indefinite"></animate>
  </rect>
</g><g transform="rotate(274.2857142857143 50 50)">
  <rect x="49" y="25.5" rx="1" ry="1.17" width="2" height="13" fill="#0a0a0a">
    <animate attributeName="opacity" values="1;0" keyTimes="0;1" dur="0.2645502645502646s" begin="-0.05039052658100277s" repeatCount="indefinite"></animate>
  </rect>
</g><g transform="rotate(291.42857142857144 50 50)">
  <rect x="49" y="25.5" rx="1" ry="1.17" width="2" height="13" fill="#0a0a0a">
    <animate attributeName="opacity" values="1;0" keyTimes="0;1" dur="0.2645502645502646s" begin="-0.03779289493575208s" repeatCount="indefinite"></animate>
  </rect>
</g><g transform="rotate(308.57142857142856 50 50)">
  <rect x="49" y="25.5" rx="1" ry="1.17" width="2" height="13" fill="#0a0a0a">
    <animate attributeName="opacity" values="1;0" keyTimes="0;1" dur="0.2645502645502646s" begin="-0.025195263290501386s" repeatCount="indefinite"></animate>
  </rect>
</g><g transform="rotate(325.7142857142857 50 50)">
  <rect x="49" y="25.5" rx="1" ry="1.17" width="2" height="13" fill="#0a0a0a">
    <animate attributeName="opacity" values="1;0" keyTimes="0;1" dur="0.2645502645502646s" begin="-0.012597631645250693s" repeatCount="indefinite"></animate>
  </rect>
</g><g transform="rotate(342.85714285714283 50 50)">
  <rect x="49" y="25.5" rx="1" ry="1.17" width="2" height="13" fill="#0a0a0a">
    <animate attributeName="opacity" values="1;0" keyTimes="0;1" dur="0.2645502645502646s" begin="0s" repeatCount="indefinite"></animate>
  </rect>
</g>
<!-- [ldio] generated by https://loading.io/ --></svg>